<?xml version="1.0" encoding="utf-8"?>
<!-- Generator: Adobe Illustrator 16.0.0, SVG Export Plug-In . SVG Version: 6.00 Build 0)  -->
<!DOCTYPE svg PUBLIC "-//W3C//DTD SVG 1.1//EN" "http://www.w3.org/Graphics/SVG/1.1/DTD/svg11.dtd">
<svg version="1.1" id="Layer_1" xmlns="http://www.w3.org/2000/svg" xmlns:xlink="http://www.w3.org/1999/xlink" x="0px" y="0px"
	 width="200px" height="100px" viewBox="0 0 1200 900" enable-background="new 0 0 1200 900" xml:space="preserve">
<g>
	<defs>
		<rect id="SVGID_1_" x="123.857" y="294.895" width="947.143" height="248.105"/>
	</defs>
	<clipPath id="SVGID_2_">
		<use xlink:href="#SVGID_1_"  overflow="visible"/>
	</clipPath>
	<path clip-path="url(#SVGID_2_)" fill="#555A55" d="M238.533,383.387c-5.684,15.747-11.311,31.406-16.977,47.056
		c-6.847,18.899-13.855,37.751-20.502,56.724c-1.943,5.534-5.076,7.786-10.979,7.805c-17.387,0.062-18.397-0.542-22.358-17.386
		c-0.428-1.822-0.542-3.542,0.305-5.273c1.295-2.623,2.505-5.296,3.8-7.915c2.79-5.645,5.618-11.274,8.761-17.578
		c3.551,6.852,3.513,14.057,6.494,21.811c3.761-10.788,7.065-20.422,10.494-30.007c9.055-25.328,18.521-50.512,27.062-76.004
		c3.057-9.119,9.417-8.003,16.198-8.232c6.341-0.21,10.559,1.413,12.825,8.202c11.332,34.077,24.463,67.545,34.947,101.92
		c0.305,1.011,0.962,1.923,1.733,3.426c10.046-35.257,22.578-68.949,33.594-103.141c3.01-9.337,4.267-10.177,14.065-10.216
		c4.704-0.023,9.418-0.009,15.063-0.009c-5.426,15.188-10.598,29.616-15.749,44.051c-10.875,30.442-21.825,60.86-32.51,91.358
		c-1.266,3.607-2.751,5.058-6.626,4.968c-23.292-0.562-18.274,3.24-25.947-17.897C260.92,445.931,249.799,414.741,238.533,383.387"
		/>
	<path clip-path="url(#SVGID_2_)" fill="#555A55" d="M913.148,420.452c-0.24,9.944,0.865,20.447,4.75,30.547
		c6.38,16.61,19.77,25.752,38.193,26.024c19.246,0.281,32.86-8.007,39.146-25.27c7.962-21.791,7.893-43.959-0.382-65.675
		c-5.806-15.23-17.777-23.003-33.794-24.119c-15.558-1.079-29.28,3.182-38.374,16.775
		C914.434,391.05,912.899,405.222,913.148,420.452 M887.066,420.146c0.152-22.145,4.675-42.384,20.093-58.116
		c20.186-20.624,45.268-24.234,71.997-16.734c26.232,7.367,39.878,26.796,45.287,52.458c3.628,17.263,3.217,34.63-2.114,51.642
		c-9.722,30.99-35.337,48.569-67.722,47.375c-42.107-1.555-64.38-31.42-67.133-67.811
		C887.247,425.792,887.181,422.618,887.066,420.146"/>
	<path clip-path="url(#SVGID_2_)" fill="#555855" d="M533.533,373.4c-26.462,0-51.583-0.196-76.684,0.144
		c-5.846,0.085-7.131-1.714-6.941-7.219c0.4-11.739,0.105-11.749,11.892-11.749c31.92,0,63.838,0.105,95.757-0.114
		c5.199-0.032,7.113,1.098,6.951,6.694c-0.161,5.807-1.904,10.504-5.513,14.859c-25.158,30.317-50.259,60.679-75.369,91.035
		c-2.124,2.562-4.171,5.188-7.208,8.99h7.684c23.777,0,47.544,0.109,71.312-0.104c4.523-0.045,6.295,0.83,6.209,5.858
		c-0.2,13.07,0.066,13.074-13.293,13.074c-32.147,0-64.285-0.152-96.433,0.147c-5.618,0.053-6.779-1.779-6.551-6.857
		c0.238-4.977,1.495-9.127,4.724-13.016c26.329-31.698,52.543-63.493,78.767-95.277C530.229,378.171,531.428,376.306,533.533,373.4"
		/>
	<path clip-path="url(#SVGID_2_)" fill="#555A55" d="M746.146,354.639c-8.085,17.164-15.835,33.691-23.653,50.182
		c-19.368,40.825-39.269,81.406-57.856,122.579c-5.343,11.829-11.987,17.205-24.635,15.185c-2.419-0.383-4.95-0.054-7.788-0.054
		c0.591-4.918,3.322-8.57,5.273-12.496c6.456-12.964,12.895-25.929,19.636-38.739c1.677-3.197,1.925-5.832,0.02-8.8
		c-0.61-0.945-1.01-2.036-1.437-3.085c-2.811-6.824-9.904-13.634-8.41-20.037c2.065-8.813,8.846-16.519,13.847-25.122
		c3.988,8.555,8.044,16.342,10.644,25.352c3.173-2.307,3.097-5.695,4.305-8.346c13.684-30.032,27.338-60.07,40.946-90.125
		c1.877-4.136,4.828-6.465,9.417-6.485C732.748,354.615,739.042,354.639,746.146,354.639"/>
	<path clip-path="url(#SVGID_2_)" fill="#585D58" d="M832.418,423.329c0-21.314,0.219-42.634-0.153-63.933
		c-0.104-5.864,1.723-7.529,7.229-6.953c4.256,0.444,8.607,0.378,12.873,0c4.41-0.38,5.19,1.479,5.181,5.468
		c-0.132,43.76-0.162,87.518,0.019,131.284c0.021,4.638-1.477,5.803-5.752,5.495c-4.723-0.329-9.521-0.361-14.244,0.016
		c-4.313,0.334-5.274-1.312-5.247-5.397C832.513,467.317,832.418,445.32,832.418,423.329"/>
	<path clip-path="url(#SVGID_2_)" fill="#505550" d="M407.973,425.439c0,20.851-0.143,41.712,0.104,62.569
		c0.057,5.048-0.846,7.629-6.589,6.922c-6.218-0.769-14.274,2.577-18.341-1.312c-4.112-3.926-1.257-12.022-1.284-18.269
		c-0.143-38.087,0.019-76.172-0.172-114.253c-0.029-4.919,1.02-7.201,6.324-6.561c6.428,0.776,14.778-2.807,18.863,1.492
		c3.724,3.913,1,12.105,1.056,18.403C408.059,391.427,407.973,408.433,407.973,425.439"/>
	<path clip-path="url(#SVGID_2_)" fill="#2189CA" d="M123.857,354.72c7.562,0,14.302-0.071,21.044,0.023
		c4.762,0.067,7.238,3.035,8.628,7.276c5.873,18.037,11.73,36.077,17.73,54.066c0.999,2.981,0.942,5.424-0.562,8.274
		c-4.2,7.92-8.066,16.014-12.838,25.609C146.262,417.484,135.179,386.432,123.857,354.72"/>
	<path clip-path="url(#SVGID_2_)" fill="#2189CA" d="M595.39,354.677c8.36,0,15.787-0.039,23.206,0.01
		c4.17,0.029,6.559,2.609,8.197,6.102c7.696,16.375,15.294,32.79,23.15,49.095c1.237,2.556,0.418,4.25-0.687,6.255
		c-4.057,7.312-8.064,14.647-12.837,23.322C622.527,410.746,609.131,383.077,595.39,354.677"/>
	<path clip-path="url(#SVGID_2_)" fill="#585D58" d="M1034.526,313.298c-0.083,11.778,8.619,18.547,19.208,16.267
		c3.077-0.668,7.789-1.512,7.267-4.676c-0.764-4.527-4.962-1.923-7.906-1.297c-3.751,0.796-7.303,0.372-9.397-3.275
		c-2.104-3.668-2.228-7.676,0.122-11.244c2.362-3.561,6.019-4.286,10.02-3.227c1.258,0.333,2.409,1.06,3.656,1.451
		c1.876,0.597,2.658-0.935,3.571-2.085c1.343-1.678-0.134-2.366-1.19-3.016c-5.608-3.406-11.446-3.545-17.246-0.716
		C1037.232,304.128,1034.661,308.705,1034.526,313.298 M1070.999,315.164c-0.124,10.809-9.952,19.846-21.417,19.693
		c-11.55-0.144-20.93-9.395-20.684-20.388c0.249-11.157,9.542-19.659,21.37-19.574
		C1061.875,294.983,1071.15,304.039,1070.999,315.164"/>
	<path clip-path="url(#SVGID_2_)" fill="#2189CA" d="M394.289,334.283c-9.96-0.167-18.654-8.029-18.702-16.913
		c-0.048-8.966,9.284-17.37,19.177-17.27c10.694,0.106,19.083,8.194,18.74,18.061C413.19,327.07,404.392,334.466,394.289,334.283"/>
	<path clip-path="url(#SVGID_2_)" fill="#555A55" d="M776.988,494.601c-9.646-0.167-17.577-8.426-17.244-17.954
		c0.295-9.115,8.598-17.024,17.776-16.949c9.247,0.076,17.741,8.604,17.76,17.84C795.299,486.628,786.568,494.772,776.988,494.601"
		/>
	<path clip-path="url(#SVGID_2_)" fill="#2189CA" d="M862.688,314.459c0.104,9.614-7.771,17.491-17.627,17.64
		c-9.418,0.139-17.949-8.179-17.922-17.478c0.021-9.138,8.037-17.13,17.369-17.315C854.222,297.104,862.581,304.991,862.688,314.459
		"/>
</g>
</svg>
